<svg width="24" height="24" xmlns="http://www.w3.org/2000/svg" fill="#1A0DAB">

 <g>
  <path id="svg_1" fill="none" d="m0,0l24,0l0,24l-24,0l0,-24z"/>
  <path id="svg_2" d="m3,9l0,6l4,0l5,5l0,-16l-5,5l-4,0zm7,-0.17l0,6.34l-2.17,-2.17l-2.83,0l0,-2l2.83,0l2.17,-2.17zm6.5,3.17c0,-1.77 -1.02,-3.29 -2.5,-4.03l0,8.05c1.48,-0.73 2.5,-2.25 2.5,-4.02zm-2.5,-8.77l0,2.06c2.89,0.86 5,3.54 5,6.71s-2.11,5.85 -5,6.71l0,2.06c4.01,-0.91 7,-4.49 7,-8.77c0,-4.28 -2.99,-7.86 -7,-8.77z"/>
  <path id="svg_4" d="m10.07158,8.63814l-2.26681,2.22179l-2.92679,0.12837l-0.07702,2.28495c0.00753,0.01181 2.93432,-0.03953 2.96,-0.03953c0.02567,0 2.28495,2.13091 2.27741,2.11909c0.00753,0.01181 0.00753,0.01181 0.03321,-6.71467z"/>
 </g>
</svg>